<?xml version="1.0" encoding="UTF-8" standalone="no"?>
<!-- Created with Inkscape (http://www.inkscape.org/) -->

<svg
   width="50mm"
   height="50mm"
   viewBox="0 0 50 50"
   version="1.1"
   id="svg5"
   inkscape:version="1.2.2 (b0a8486541, 2022-12-01)"
   sodipodi:docname="Player.svg"
   inkscape:export-filename="Player.png"
   inkscape:export-xdpi="96"
   inkscape:export-ydpi="96"
   xmlns:inkscape="http://www.inkscape.org/namespaces/inkscape"
   xmlns:sodipodi="http://sodipodi.sourceforge.net/DTD/sodipodi-0.dtd"
   xmlns="http://www.w3.org/2000/svg"
   xmlns:svg="http://www.w3.org/2000/svg">
  <sodipodi:namedview
     id="namedview7"
     pagecolor="#ffffff"
     bordercolor="#000000"
     borderopacity="0.25"
     inkscape:showpageshadow="2"
     inkscape:pageopacity="0.0"
     inkscape:pagecheckerboard="true"
     inkscape:deskcolor="#d1d1d1"
     inkscape:document-units="mm"
     showgrid="false"
     inkscape:zoom="2.0838024"
     inkscape:cx="35.512004"
     inkscape:cy="92.379201"
     inkscape:window-width="1920"
     inkscape:window-height="1008"
     inkscape:window-x="0"
     inkscape:window-y="0"
     inkscape:window-maximized="1"
     inkscape:current-layer="layer3" />
  <defs
     id="defs2" />
  <g
     inkscape:groupmode="layer"
     id="layer3"
     inkscape:label="Layer 3">
    <path
       style="fill:#ffffff;stroke:#000000;stroke-width:0.264583"
       d="m 36.440795,34.409252 6.094627,-0.888799 1.269714,-7.872228 -11.554399,-11.554399 -2.285484,1.7776 10.665597,10.919541 -3.174285,2.285486 -1.90457,0.380914 z"
       id="path560" />
  </g>
  <g
     inkscape:groupmode="layer"
     id="layer2"
     inkscape:label="Layer 2">
    <path
       style="fill:#ffff00;stroke:#000000;stroke-width:0.193743"
       d="m 11.458663,28.445938 c 0.345312,0.123956 1.470558,-0.147996 1.766549,0 0.519264,0.259632 0.556091,1.013906 0.650833,1.487619 -0.06906,0.172073 0.158851,0.170521 0.185952,0.278929 0.06099,0.243961 0.05468,2.105702 0,2.324406 -0.02471,0.09883 -0.150634,0.487219 -0.185952,0.557856 -0.03921,0.0784 -0.164692,0.100905 -0.185952,0.185953 -0.03818,0.152705 0.05142,0.403577 0,0.557857 -0.05035,0.151069 -0.231892,0.183759 -0.278928,0.371905 -0.02705,0.108161 0.03591,0.264167 0,0.371906 -0.224489,0.673466 0.02681,-0.146587 -0.185953,0.278927 -0.129461,0.25891 -0.146561,0.584649 -0.464881,0.743812 -0.08915,0.04458 -0.268831,0 -0.371905,0 -0.789462,0 -0.46269,-0.267969 -0.557858,-0.743812 -0.01922,-0.09611 -0.07686,-0.182255 -0.09298,-0.278927 -0.01529,-0.09171 0.04159,-0.19577 0,-0.278929 -0.04171,-0.08341 -0.396789,-0.210838 -0.464882,-0.278929 -0.03897,-0.03897 -0.0648,-0.22258 -0.09298,-0.278929 -0.08733,-0.174661 -0.341198,-0.155247 -0.46488,-0.278929 -0.143173,-0.14317 -0.09298,-0.995001 -0.09298,-1.20869 0,-0.578994 -0.08789,-1.223938 0.09298,-1.766548 0.06513,-0.195379 -0.05011,-0.450394 0,-0.650834 0.0637,-0.25483 0.295738,-0.143408 0.371904,-0.371905 0.05579,-0.167356 -0.05579,-0.3905 0,-0.557858 0.1318,-0.395398 0.03719,0.105368 0.185952,-0.09298 0.08316,-0.110887 0.12397,-0.247937 0.185953,-0.371905 z"
       id="path497" />
    <path
       style="fill:#ffff00;stroke:#000000;stroke-width:0.193743"
       d="m 35.1676,28.352962 c -0.196109,0.293839 -0.857948,-0.03591 -1.115714,0.09298 -0.231795,0.115898 -0.223154,0.641575 -0.278929,0.836785 -0.402626,1.409188 -0.02563,-0.04172 -0.27893,0.464882 -0.09282,0.185656 0.02832,0.638613 0,0.836786 -0.106156,0.743113 -0.09298,1.474073 -0.09298,2.23143 0,0.626658 0.06502,1.161957 0.185952,1.766548 0.02009,0.100383 -0.04554,0.3738 0,0.464881 0.03921,0.0784 0.146749,0.107546 0.185953,0.185951 0.04915,0.0983 0.04092,0.267777 0.09298,0.371907 0.103858,0.207717 0.238131,0.09676 0.371905,0.185951 0.05766,0.03844 0.04398,0.13695 0.09298,0.185954 0.049,0.049 0.128299,0.05453 0.185954,0.09298 0.289561,0.19304 0.807566,0.973588 1.208689,0.371905 0.06877,-0.10315 -0.03921,-0.254299 0,-0.371905 0.07727,-0.231787 0.673769,-0.998978 0.743812,-1.115714 0.179506,-0.299181 0.598986,-2.024044 0.650832,-2.231431 0.08258,-0.330308 -0.05395,-0.572773 -0.185951,-0.836786 -0.07387,-0.14775 0.04093,-0.394123 0,-0.557858 -0.11225,-0.448976 -0.04419,0.0047 -0.185954,-0.278927 -0.04157,-0.08316 0,-0.185953 0,-0.27893 0,-0.435645 0.112731,-1.614323 0,-1.9525 -0.06167,-0.185018 -0.08678,-0.04339 -0.185951,-0.09298 -0.111568,-0.05578 -0.167358,-0.223142 -0.27893,-0.278927 -0.07275,-0.03638 -0.494651,-0.02107 -0.557858,0 -0.04157,0.01386 -0.04974,0.100183 -0.09298,0.09298 -0.164627,-0.02743 -0.299926,-0.21133 -0.464882,-0.185953 -0.273976,0.04215 -0.495871,0.247936 -0.74381,0.371904"
       id="path495" />
    <path
       style="fill:#ffffff;stroke:#000000;stroke-width:0.264583"
       d="M 10.665598,30.473138 9.1419415,24.251539 17.395083,17.395083 14.601712,14.347769 5.5867422,22.219997 7.2373704,34.917138 10.919541,34.409252 Z"
       id="path558" />
    <circle
       style="fill:#ffff00;stroke:#000000;stroke-width:0.413515"
       id="path614"
       cx="29.647827"
       cy="14.665197"
       r="3.6711907" />
    <circle
       style="fill:#ffff00;stroke:#000000;stroke-width:0.264583"
       id="path616"
       cx="18.410854"
       cy="14.34777"
       r="3.9361138" />
    <path
       style="fill:#000000;stroke:#000000;stroke-width:0.264583"
       d="M 22.346968,12.443198 22.219996,6.4755419 h 3.682171 l -0.380914,9.3958841 -2.793371,0.126972 z"
       id="path672" />
  </g>
  <g
     inkscape:label="Layer 1"
     inkscape:groupmode="layer"
     id="layer1">
    <circle
       style="fill:#000000;stroke:#000000;stroke-width:0.193743"
       id="path140"
       cx="23.963966"
       cy="31.839571"
       r="10.924706" />
    <path
       style="fill:#000000;stroke:#000000;stroke-width:0.193743"
       d="m 20.942238,21.565698 c -1.146707,0 -2.293414,0 -3.440121,0 -0.323739,0 -0.795973,-0.07994 -1.115714,0 -0.04252,0.01069 -0.05139,0.07912 -0.09298,0.09298 -0.356279,0.118758 -1.02936,-0.02878 -1.394643,0.09298 -0.220697,0.07356 -0.381428,0.40663 -0.557858,0.557856 -0.186661,0.159995 -0.477175,0.291223 -0.650833,0.464881 -0.02191,0.02192 0.06199,0 0.09298,0 0.154959,0 0.310376,0.01189 0.46488,0 1.241327,-0.09549 0.26106,-0.03739 1.487619,-0.371905 0.08969,-0.02447 0.190723,0.0294 0.278929,0 0.131492,-0.04383 0.371905,-0.324553 0.371905,-0.185952 0,0.131492 -0.194752,0.177917 -0.278929,0.278928 -0.240674,0.28881 -0.225927,0.410334 -0.557858,0.557858 -0.158237,0.07033 -1.487619,0.516496 -1.487619,0.74381 0,0.287016 0.929762,-0.100744 0.929762,0.09298 0,0.626271 -0.244062,0.235349 -0.650833,0.74381 -0.0044,0.0055 -0.506571,1.199095 -0.557856,1.301668 -0.09527,0.19052 0.203473,0.185952 0.278927,0.185952 0.557858,0 1.115714,0 1.673572,0 0.127778,0 0.462261,-0.0027 0.371905,-0.09298 -0.04383,-0.04383 -0.125813,-0.01503 -0.185953,0 -0.313905,0.07848 -0.624361,0.172039 -0.929762,0.27893 -1.047564,0.366647 -2.098563,0.756238 -3.068215,1.301667 -0.0764,0.04298 -0.113011,0.137328 -0.185951,0.185952 -0.05556,0.03704 -0.185953,-0.0743 -0.185953,0.09298 0,0.03099 0.06719,-0.0172 0.09298,0 0.07293,0.04863 0.123969,0.12397 0.185952,0.185952 0.09298,0.09298 0.173738,0.200037 0.278928,0.27893 0.110887,0.08316 0.2739,0.08794 0.371905,0.185952 0.06043,0.06043 0.252021,0.543201 0.278929,0.650833 0.173212,0.692847 -0.263121,0.951543 -0.650834,1.394644 -0.17556,0.20064 -0.276363,0.462316 -0.46488,0.650833 -0.049,0.049 0.07106,-0.120201 0.09298,-0.185952 0.112237,-0.336697 -0.498077,0.405099 0.278928,-0.371905 0.447525,-0.447526 0.575867,-0.360777 1.022739,-0.74381 0.203245,-0.17421 0.300991,-0.362134 0.557857,-0.464881 0.08633,-0.03453 0.195768,0.04157 0.278928,0 0.09298,-0.04649 0.185952,-0.278929 0.27893,-0.278929 0.02429,0 -0.03822,0.140753 -0.371905,0.557858 -0.220745,0.27593 -0.420868,0.568492 -0.650834,0.836786 -0.729183,0.850712 -0.134835,-0.0813 -0.464882,0.743809 -0.03255,0.08139 -0.14675,0.107546 -0.185952,0.185954 -0.08316,0.166319 0.03057,0.374433 0,0.557856 -0.01136,0.06835 -0.08317,0.117355 -0.09298,0.185953 -0.149702,1.047913 0.203197,-0.07124 -0.185953,0.836785 -0.03861,0.09008 -0.03861,0.197383 -0.09298,0.27893 -0.03845,0.05766 -0.234955,0.04396 -0.185953,0.09298 0.20201,0.202011 1.843057,-0.689087 1.952501,-0.743809"
       id="path257" />
    <path
       style="fill:#000000;stroke:#000000;stroke-width:0.193743"
       d="m 31.820457,24.540936 c -0.216946,-0.06199 -0.431946,-0.131225 -0.650834,-0.185952 -1.104373,-0.276094 -2.132318,-0.278929 -3.254169,-0.278929 -0.100757,0 -0.585115,0.06572 -0.650834,0 -0.04383,-0.04383 0,-0.12397 0,-0.185953 0,-0.544533 0.464882,-0.990889 0.464882,-1.115714 0,-0.03099 -0.06199,0 -0.09298,0 -0.09298,0 -0.186333,-0.0084 -0.278927,0 -0.248842,0.02262 -0.502381,0.0286 -0.74381,0.09298 -0.153673,0.04097 -0.733609,0.423494 -1.022739,0.278929 -0.278054,-0.139026 -0.0063,-0.647711 0.185951,-0.74381 0.185955,-0.09298 0,0.185953 0.27893,0 0.05766,-0.03845 0.04968,-0.13184 0.09298,-0.185952 0.08214,-0.102682 0.185952,-0.185953 0.278929,-0.278928"
       id="path259" />
  </g>
</svg>
